<mxfile host="app.diagrams.net" modified="2020-10-28T05:38:44.913Z" agent="5.0 (Macintosh; Intel Mac OS X 10_13_6) AppleWebKit/537.36 (KHTML, like Gecko) Chrome/85.0.4183.121 Safari/537.36" etag="VdGQ1ilMBIWwTkLhoyT-" version="13.8.5" type="github">
  <diagram id="6I0OCvxSQrVGMHxT2VVA" name="Page-1">
    <mxGraphModel dx="1426" dy="771" grid="1" gridSize="10" guides="1" tooltips="1" connect="1" arrows="1" fold="1" page="1" pageScale="1" pageWidth="850" pageHeight="1100" math="0" shadow="0">
      <root>
        <mxCell id="0" />
        <mxCell id="1" parent="0" />
        <mxCell id="dKdSaXE48SgPbhcamS2K-63" value="Title" style="text;strokeColor=none;fillColor=none;html=1;fontSize=24;fontStyle=1;verticalAlign=middle;align=center;" parent="1" vertex="1">
          <mxGeometry x="50" y="70" width="1590" height="40" as="geometry" />
        </mxCell>
        <mxCell id="jrJN2CfX7w5Tr07i0sM0-2" value="" style="rounded=1;whiteSpace=wrap;html=1;fillColor=#FFFFFF;dashed=1;" vertex="1" parent="1">
          <mxGeometry x="280" y="390" width="670" height="560" as="geometry" />
        </mxCell>
        <mxCell id="jrJN2CfX7w5Tr07i0sM0-1" value="" style="rounded=0;whiteSpace=wrap;html=1;fillColor=#5078BB;strokeColor=#B3B3B3;" vertex="1" parent="1">
          <mxGeometry x="280" y="470" width="670" height="390" as="geometry" />
        </mxCell>
        <mxCell id="jrJN2CfX7w5Tr07i0sM0-8" value="" style="rounded=1;whiteSpace=wrap;html=1;fillColor=none;strokeColor=#A9C4EB;" vertex="1" parent="1">
          <mxGeometry x="698" y="541" width="110" height="288" as="geometry" />
        </mxCell>
        <mxCell id="jrJN2CfX7w5Tr07i0sM0-9" value="" style="rounded=1;whiteSpace=wrap;html=1;fillColor=none;strokeColor=#A9C4EB;" vertex="1" parent="1">
          <mxGeometry x="566" y="541" width="110" height="288" as="geometry" />
        </mxCell>
        <mxCell id="jrJN2CfX7w5Tr07i0sM0-10" value="" style="rounded=1;whiteSpace=wrap;html=1;fillColor=none;strokeColor=#A9C4EB;" vertex="1" parent="1">
          <mxGeometry x="429" y="541" width="120" height="290" as="geometry" />
        </mxCell>
        <mxCell id="jrJN2CfX7w5Tr07i0sM0-11" value="" style="rounded=1;whiteSpace=wrap;html=1;fillColor=none;strokeColor=#A9C4EB;" vertex="1" parent="1">
          <mxGeometry x="300" y="540" width="115" height="290" as="geometry" />
        </mxCell>
        <mxCell id="jrJN2CfX7w5Tr07i0sM0-12" value="&lt;font style=&quot;font-size: 19px&quot;&gt;IaaS层&lt;/font&gt;" style="text;html=1;strokeColor=none;fillColor=none;align=center;verticalAlign=middle;whiteSpace=wrap;rounded=0;shadow=1;dashed=1;" vertex="1" parent="1">
          <mxGeometry x="500" y="870" width="210" height="70" as="geometry" />
        </mxCell>
        <mxCell id="jrJN2CfX7w5Tr07i0sM0-13" value="&lt;font style=&quot;font-size: 15px&quot;&gt;租户管理&lt;/font&gt;" style="rounded=1;whiteSpace=wrap;html=1;shadow=1;strokeColor=#6c8ebf;fillColor=#dae8fc;" vertex="1" parent="1">
          <mxGeometry x="307.5" y="549" width="100" height="40" as="geometry" />
        </mxCell>
        <mxCell id="jrJN2CfX7w5Tr07i0sM0-14" value="&lt;font style=&quot;font-size: 15px&quot;&gt;权限管理&lt;/font&gt;" style="rounded=1;whiteSpace=wrap;html=1;shadow=1;strokeColor=#666666;fillColor=#f5f5f5;fontColor=#333333;" vertex="1" parent="1">
          <mxGeometry x="439" y="549" width="100" height="40" as="geometry" />
        </mxCell>
        <mxCell id="jrJN2CfX7w5Tr07i0sM0-15" value="&lt;font style=&quot;font-size: 19px&quot;&gt;SaaS层&lt;/font&gt;" style="text;html=1;strokeColor=none;fillColor=none;align=center;verticalAlign=middle;whiteSpace=wrap;rounded=0;shadow=1;dashed=1;" vertex="1" parent="1">
          <mxGeometry x="510" y="400" width="210" height="70" as="geometry" />
        </mxCell>
        <mxCell id="jrJN2CfX7w5Tr07i0sM0-16" value="&lt;font style=&quot;font-size: 19px&quot; color=&quot;#ffffff&quot;&gt;九色鹿底座PaaS核心服务&lt;/font&gt;" style="text;html=1;strokeColor=none;fillColor=none;align=center;verticalAlign=middle;whiteSpace=wrap;rounded=0;shadow=1;dashed=1;" vertex="1" parent="1">
          <mxGeometry x="503.5" y="480" width="235" height="50" as="geometry" />
        </mxCell>
        <mxCell id="jrJN2CfX7w5Tr07i0sM0-17" value="&lt;font style=&quot;font-size: 15px&quot;&gt;企业管理&lt;/font&gt;" style="rounded=1;whiteSpace=wrap;html=1;shadow=1;strokeColor=#82b366;fillColor=#d5e8d4;" vertex="1" parent="1">
          <mxGeometry x="571" y="549" width="100" height="40" as="geometry" />
        </mxCell>
        <mxCell id="jrJN2CfX7w5Tr07i0sM0-18" value="&lt;font style=&quot;font-size: 15px&quot;&gt;应用管理&lt;/font&gt;" style="rounded=1;whiteSpace=wrap;html=1;shadow=1;strokeColor=#d79b00;fillColor=#ffe6cc;" vertex="1" parent="1">
          <mxGeometry x="703" y="549" width="100" height="40" as="geometry" />
        </mxCell>
        <mxCell id="jrJN2CfX7w5Tr07i0sM0-19" value="" style="rounded=1;whiteSpace=wrap;html=1;fillColor=none;strokeColor=#A9C4EB;" vertex="1" parent="1">
          <mxGeometry x="830" y="540" width="110" height="288" as="geometry" />
        </mxCell>
        <mxCell id="jrJN2CfX7w5Tr07i0sM0-20" value="&lt;font style=&quot;font-size: 15px&quot;&gt;计费管理&lt;/font&gt;" style="rounded=1;whiteSpace=wrap;html=1;shadow=1;strokeColor=#d6b656;fillColor=#fff2cc;" vertex="1" parent="1">
          <mxGeometry x="835" y="549" width="100" height="40" as="geometry" />
        </mxCell>
        <mxCell id="jrJN2CfX7w5Tr07i0sM0-22" value="&lt;font color=&quot;#ffffff&quot;&gt;租户入驻&lt;/font&gt;" style="rounded=1;whiteSpace=wrap;html=1;shadow=1;strokeColor=#A9C4EB;fillColor=#4B6FAB;gradientColor=none;" vertex="1" parent="1">
          <mxGeometry x="311.25" y="610" width="92.5" height="30" as="geometry" />
        </mxCell>
        <mxCell id="jrJN2CfX7w5Tr07i0sM0-23" value="&lt;font color=&quot;#ffffff&quot;&gt;权限控制&lt;/font&gt;" style="rounded=1;whiteSpace=wrap;html=1;shadow=1;strokeColor=#A9C4EB;fillColor=#4B6FAB;gradientColor=none;" vertex="1" parent="1">
          <mxGeometry x="311.25" y="660" width="92.5" height="30" as="geometry" />
        </mxCell>
        <mxCell id="jrJN2CfX7w5Tr07i0sM0-24" value="&lt;font color=&quot;#ffffff&quot;&gt;账号管理&lt;/font&gt;" style="rounded=1;whiteSpace=wrap;html=1;shadow=1;strokeColor=#A9C4EB;fillColor=#4B6FAB;gradientColor=none;" vertex="1" parent="1">
          <mxGeometry x="311.25" y="710" width="92.5" height="30" as="geometry" />
        </mxCell>
        <mxCell id="jrJN2CfX7w5Tr07i0sM0-25" value="&lt;font color=&quot;#ffffff&quot;&gt;认证授权&lt;/font&gt;" style="rounded=1;whiteSpace=wrap;html=1;shadow=1;strokeColor=#A9C4EB;fillColor=#4B6FAB;gradientColor=none;" vertex="1" parent="1">
          <mxGeometry x="442.75" y="710" width="92.5" height="30" as="geometry" />
        </mxCell>
        <mxCell id="jrJN2CfX7w5Tr07i0sM0-26" value="&lt;font color=&quot;#ffffff&quot;&gt;角色管理&lt;/font&gt;" style="rounded=1;whiteSpace=wrap;html=1;shadow=1;strokeColor=#A9C4EB;fillColor=#4B6FAB;gradientColor=none;" vertex="1" parent="1">
          <mxGeometry x="442.75" y="610" width="92.5" height="30" as="geometry" />
        </mxCell>
        <mxCell id="jrJN2CfX7w5Tr07i0sM0-27" value="&lt;font color=&quot;#ffffff&quot;&gt;权限资源管理&lt;/font&gt;" style="rounded=1;whiteSpace=wrap;html=1;shadow=1;strokeColor=#A9C4EB;fillColor=#4B6FAB;gradientColor=none;" vertex="1" parent="1">
          <mxGeometry x="442.75" y="660" width="92.5" height="30" as="geometry" />
        </mxCell>
        <mxCell id="jrJN2CfX7w5Tr07i0sM0-29" value="&lt;font color=&quot;#ffffff&quot;&gt;企业入驻&lt;/font&gt;" style="rounded=1;whiteSpace=wrap;html=1;shadow=1;strokeColor=#A9C4EB;fillColor=#4B6FAB;gradientColor=none;" vertex="1" parent="1">
          <mxGeometry x="574.75" y="610" width="92.5" height="30" as="geometry" />
        </mxCell>
        <mxCell id="jrJN2CfX7w5Tr07i0sM0-30" value="&lt;font color=&quot;#ffffff&quot;&gt;开发者信息管理&lt;/font&gt;" style="rounded=1;whiteSpace=wrap;html=1;shadow=1;strokeColor=#A9C4EB;fillColor=#4B6FAB;gradientColor=none;" vertex="1" parent="1">
          <mxGeometry x="574.75" y="660" width="92.5" height="30" as="geometry" />
        </mxCell>
        <mxCell id="jrJN2CfX7w5Tr07i0sM0-31" value="&lt;font color=&quot;#ffffff&quot;&gt;平台管理&lt;/font&gt;" style="rounded=1;whiteSpace=wrap;html=1;shadow=1;strokeColor=#A9C4EB;fillColor=#4B6FAB;gradientColor=none;" vertex="1" parent="1">
          <mxGeometry x="574.75" y="710" width="92.5" height="30" as="geometry" />
        </mxCell>
        <mxCell id="jrJN2CfX7w5Tr07i0sM0-32" value="&lt;font color=&quot;#ffffff&quot;&gt;应用入驻&lt;/font&gt;" style="rounded=1;whiteSpace=wrap;html=1;shadow=1;strokeColor=#A9C4EB;fillColor=#4B6FAB;gradientColor=none;" vertex="1" parent="1">
          <mxGeometry x="706.75" y="610" width="92.5" height="30" as="geometry" />
        </mxCell>
        <mxCell id="jrJN2CfX7w5Tr07i0sM0-33" value="&lt;font color=&quot;#ffffff&quot;&gt;创建订单&lt;/font&gt;" style="rounded=1;whiteSpace=wrap;html=1;shadow=1;strokeColor=#A9C4EB;fillColor=#4B6FAB;gradientColor=none;" vertex="1" parent="1">
          <mxGeometry x="838.75" y="610" width="92.5" height="30" as="geometry" />
        </mxCell>
        <mxCell id="jrJN2CfX7w5Tr07i0sM0-34" value="&lt;font color=&quot;#ffffff&quot;&gt;版本管理&lt;/font&gt;" style="rounded=1;whiteSpace=wrap;html=1;shadow=1;strokeColor=#A9C4EB;fillColor=#4B6FAB;gradientColor=none;" vertex="1" parent="1">
          <mxGeometry x="706.75" y="660" width="92.5" height="30" as="geometry" />
        </mxCell>
        <mxCell id="jrJN2CfX7w5Tr07i0sM0-35" value="&lt;font color=&quot;#ffffff&quot;&gt;订单结算&lt;/font&gt;" style="rounded=1;whiteSpace=wrap;html=1;shadow=1;strokeColor=#A9C4EB;fillColor=#4B6FAB;gradientColor=none;" vertex="1" parent="1">
          <mxGeometry x="838.75" y="660" width="92.5" height="30" as="geometry" />
        </mxCell>
        <mxCell id="jrJN2CfX7w5Tr07i0sM0-36" value="&lt;font color=&quot;#ffffff&quot;&gt;租户应用管理&lt;/font&gt;" style="rounded=1;whiteSpace=wrap;html=1;shadow=1;strokeColor=#A9C4EB;fillColor=#4B6FAB;gradientColor=none;" vertex="1" parent="1">
          <mxGeometry x="311.25" y="760" width="92.5" height="30" as="geometry" />
        </mxCell>
        <mxCell id="jrJN2CfX7w5Tr07i0sM0-37" value="&lt;font color=&quot;#ffffff&quot;&gt;企业资源管理&lt;/font&gt;" style="rounded=1;whiteSpace=wrap;html=1;shadow=1;strokeColor=#A9C4EB;fillColor=#4B6FAB;gradientColor=none;" vertex="1" parent="1">
          <mxGeometry x="574.75" y="760" width="92.5" height="30" as="geometry" />
        </mxCell>
        <mxCell id="jrJN2CfX7w5Tr07i0sM0-39" value="&lt;font color=&quot;#ffffff&quot;&gt;元数据管理&lt;/font&gt;" style="rounded=1;whiteSpace=wrap;html=1;shadow=1;strokeColor=#A9C4EB;fillColor=#4B6FAB;gradientColor=none;" vertex="1" parent="1">
          <mxGeometry x="710" y="710" width="92.5" height="30" as="geometry" />
        </mxCell>
      </root>
    </mxGraphModel>
  </diagram>
</mxfile>
